<svg xmlns="http://www.w3.org/2000/svg" viewBox="0 0 1024 1024">
  <defs>
    <linearGradient id="bg" x1="160" y1="120" x2="880" y2="920" gradientUnits="userSpaceOnUse">
      <stop offset="0" stop-color="#47d1b5"/>
      <stop offset="0.48" stop-color="#2476e8"/>
      <stop offset="1" stop-color="#172033"/>
    </linearGradient>
    <linearGradient id="panel" x1="236" y1="236" x2="788" y2="788" gradientUnits="userSpaceOnUse">
      <stop offset="0" stop-color="#ffffff"/>
      <stop offset="1" stop-color="#dce8f8"/>
    </linearGradient>
    <filter id="shadow" x="-20%" y="-20%" width="140%" height="140%" color-interpolation-filters="sRGB">
      <feDropShadow dx="0" dy="26" stdDeviation="32" flood-color="#0b1630" flood-opacity="0.28"/>
    </filter>
  </defs>

  <rect width="1024" height="1024" rx="230" fill="url(#bg)"/>
  <path d="M212 273c0-48.6 39.4-88 88-88h424c48.6 0 88 39.4 88 88v478c0 48.6-39.4 88-88 88H300c-48.6 0-88-39.4-88-88V273z" fill="url(#panel)" filter="url(#shadow)"/>
  <path d="M212 322h600v96H212v-96z" fill="#172033" opacity="0.92"/>
  <circle cx="292" cy="370" r="18" fill="#ff5f57"/>
  <circle cx="354" cy="370" r="18" fill="#febc2e"/>
  <circle cx="416" cy="370" r="18" fill="#28c840"/>

  <path d="M380 590l-82-78 82-78" fill="none" stroke="#2476e8" stroke-width="54" stroke-linecap="round" stroke-linejoin="round"/>
  <path d="M644 434l82 78-82 78" fill="none" stroke="#2476e8" stroke-width="54" stroke-linecap="round" stroke-linejoin="round"/>
  <path d="M560 430l-96 164" fill="none" stroke="#172033" stroke-width="50" stroke-linecap="round"/>

  <rect x="308" y="676" width="408" height="44" rx="22" fill="#d2dee9"/>
  <rect x="308" y="676" width="248" height="44" rx="22" fill="#47d1b5"/>
</svg>
